<svg viewBox="0 0 340.16 340.16"><path class="cls-1" d="M110.44,108.87h0a15.94,15.94,0,0,1,15.94,15.94v28A42.43,42.43,0,0,1,83.94,195.2H75.17a15.94,15.94,0,0,1-15.94-15.94V160.08a51.21,51.21,0,0,1,51.21-51.21Z"/><path class="cls-1" d="M229.45,108.87h0a51.21,51.21,0,0,1,51.21,51.21v19.18a15.94,15.94,0,0,1-15.94,15.94H256a42.43,42.43,0,0,1-42.43-42.43v-28a15.94,15.94,0,0,1,15.94-15.94Z"/><rect class="cls-1" x="91.38" y="104.59" width="157.14" height="128.57" rx="64.29" transform="translate(338.82 -1.07) rotate(90)"/><line class="cls-2" x1="199.23" y1="158.83" x2="199.23" y2="164.54"/><line class="cls-2" x1="140.66" y1="158.83" x2="140.66" y2="164.54"/><path class="cls-1" d="M116.68,250.53h0a10.06,10.06,0,0,1-.57-13.6l24.72-29.3,18.75,18.75-29.3,24.72A10.07,10.07,0,0,1,116.68,250.53Z"/><path class="cls-1" d="M230.21,252h0a10.07,10.07,0,0,1-13.6.57l-29.3-24.72s-2.36-5.36,5.49-13.22,13.26-5.53,13.26-5.53l24.72,29.3A10.07,10.07,0,0,1,230.21,252Z"/><path class="cls-1" d="M191.38,216v27.14a25.72,25.72,0,0,1-25.72,25.71h0A25.71,25.71,0,0,1,140,243.16V216a25.72,25.72,0,0,1,25.71-25.72h0"/><path class="cls-3" d="M141.67,209.44c3.78,3.55,10,5.86,17,5.86s13.22-2.31,17-5.86"/><path class="cls-3" d="M141.67,225.16c3.78,3.54,10,5.86,17,5.86s13.22-2.32,17-5.86"/><path class="cls-3" d="M146.83,142.45a10,10,0,0,0-12.31,0"/><path class="cls-3" d="M194.52,140.32a10,10,0,0,0,12.31,0"/></svg>



