<svg id="圖層_1" data-name="圖層 1" xmlns="http://www.w3.org/2000/svg" viewBox="0 0 340.16 340.16"><defs><style>.cls-1{fill:#f4f4f4;stroke-width:7.54px;}.cls-1,.cls-2,.cls-3,.cls-4{stroke:#707070;stroke-linecap:round;stroke-linejoin:round;}.cls-2,.cls-3,.cls-4{fill:none;}.cls-2{stroke-width:10.05px;}.cls-3{stroke-width:6.28px;}.cls-4{stroke-width:3.77px;}</style></defs><title>GG</title><path class="cls-1" d="M194.07,83.47a8.84,8.84,0,0,0-17.62.39l-.44,7-.78-7.37a8.84,8.84,0,0,0-17.62.39l-.44,7-.78-7.37a8.84,8.84,0,0,0-17.62.39l-2.12,28.61s2,4.76,11.78,4.55c4.56-.1,7.36-1.2,9.06-2.36,1.69,1.22,4.66,2.47,9.78,2.36,4.56-.1,7.36-1.2,9.07-2.36,1.68,1.22,4.66,2.47,9.77,2.36,9.77-.21,11.53-5,11.53-5Z"/><path class="cls-1" d="M234.35,224a17.52,17.52,0,0,1-9,15.29c-10.73,6-30.7,14.38-58.17,14.38s-47.45-8.4-58.18-14.38A17.51,17.51,0,0,1,100,224V173a67.19,67.19,0,0,1,67.2-67.2h0a67.2,67.2,0,0,1,67.2,67.2Z"/><line class="cls-2" x1="192.9" y1="160.26" x2="192.9" y2="165.29"/><line class="cls-2" x1="141.4" y1="160.26" x2="141.4" y2="165.29"/><path class="cls-3" d="M206.08,205.48l-30-22.87a14.75,14.75,0,0,0-17.89,0l-30,22.87"/><path class="cls-3" d="M128.21,205.48l30,22.87a14.75,14.75,0,0,0,17.89,0l30-22.87"/><path class="cls-4" d="M134.49,204.23s22.61,5,32.66,5,35.17-5,35.17-5"/><path class="cls-4" d="M202.32,206.74s-22.61-5-32.66-5-35.17,5-35.17,5"/><path class="cls-4" d="M146.19,145.82a8.76,8.76,0,0,0-10.82,0"/><path class="cls-4" d="M188.13,144A8.76,8.76,0,0,0,199,144"/></svg>