<svg id="圖層_1" data-name="圖層 1" xmlns="http://www.w3.org/2000/svg" viewBox="0 0 340.16 340.16"><defs><style>.cls-1{fill:#4499d4;}</style></defs><title>hahow-course</title><path class="cls-1" d="M58.62,112.68c8.13-1.55,14.23-.47,18.44,3.23,4,3.46,6,9.19,6,17.21s-2,14.47-6,19.53c-4.21,5.3-10.31,8.72-18.44,10.28l-18.3,3.5V116.18Zm-10.1,45.14,8.55-1.63c6.24-1.2,10.8-3.55,13.68-7s4.2-8.34,4.2-14.53-1.4-10.71-4.2-13-7.44-2.87-13.68-1.68l-8.55,1.64Z"/><path class="cls-1" d="M118.77,120.1c2.88,3.11,4.35,8,4.35,14.51L96,139.8c.28,3.33,1.19,5.76,2.73,7.22s3.79,1.95,6.66,1.4a11.79,11.79,0,0,0,6-2.83,15.83,15.83,0,0,0,3.23-5.05l8-1.53a21,21,0,0,1-5,9.48A21.88,21.88,0,0,1,105.45,155c-5.4,1-9.67.17-12.83-2.54-3.36-2.8-5.05-7.2-5.05-13.25a23.33,23.33,0,0,1,4.77-14.49,19.58,19.58,0,0,1,12.76-8C111.06,115.53,115.62,116.63,118.77,120.1Zm-19.7,6.52a14.57,14.57,0,0,0-2.94,7.11l18.65-3.57c-.7-5.78-3.86-8.06-9.47-7A10.19,10.19,0,0,0,99.07,126.62Z"/><path class="cls-1" d="M158.32,118l-7.79,1.49a5.16,5.16,0,0,0-2.52-3.39c-1.19-.55-3-.55-5.47-.08a11.1,11.1,0,0,0-4.77,1.83,3.84,3.84,0,0,0-1.82,3.37c0,1.13.91,2,2.88,2.48a57.27,57.27,0,0,0,7.22.73c4.06.2,7.15.74,9.11,1.7a6.94,6.94,0,0,1,4.35,6.84c0,7.74-5.47,12.66-16.34,14.74-10.09,1.93-15.49-1.33-16.26-9.7l7.78-1.49c.42,2.24,1.26,3.7,2.45,4.46s3.09.75,5.75.24c5.61-1.08,8.41-3.16,8.41-6.12q0-2.53-3.15-3.4a36.72,36.72,0,0,0-7.15-.68c-4.28-.16-7.29-.64-9.05-1.43a6.62,6.62,0,0,1-4.2-6.59,10.78,10.78,0,0,1,4.13-8.6,21.63,21.63,0,0,1,10.8-5C152.22,107.65,157.47,110.45,158.32,118Z"/><path class="cls-1" d="M174.72,91a4.3,4.3,0,0,1,1.55,3.51,6.25,6.25,0,0,1-1.62,4.18,6.66,6.66,0,0,1-3.85,2.21,4.63,4.63,0,0,1-3.86-.74,4.3,4.3,0,0,1-1.54-3.57,6,6,0,0,1,1.54-4.1,6.65,6.65,0,0,1,3.86-2.21A4.8,4.8,0,0,1,174.72,91Zm.07,13.36V140.7l-8,1.53V105.85Z"/><path class="cls-1" d="M210.06,102V97.57l8-1.53v34.07q0,17.2-17,20.5c-5.11,1-9,.73-11.63-.59s-4.35-4.1-5-8l8-1.53c.42,2,1.26,3.2,2.6,3.79s3.29.57,6.09,0q9-1.72,9.05-11.44v-5.35a15.91,15.91,0,0,1-10.73,7.68c-4.91.94-8.9,0-11.92-2.64s-4.55-6.87-4.55-12.36A22.36,22.36,0,0,1,187.41,106a19,19,0,0,1,11.92-7.35C203.82,97.78,207.39,98.86,210.06,102Zm-16.48,7.37a15.49,15.49,0,0,0-2.52,9.21c0,3.45.63,6,2,7.72,1.54,2,4,2.75,7.5,2.08a11.18,11.18,0,0,0,7.16-4.39,15.93,15.93,0,0,0,2.45-9.06c0-3.73-.84-6.45-2.45-8.25s-4.07-2.39-7.09-1.82A10.63,10.63,0,0,0,193.58,109.38Z"/><path class="cls-1" d="M258.37,102.27v22.45l-8,1.52V104.5c0-6-2.73-8.42-8.2-7.37a9.19,9.19,0,0,0-5.19,3.1,12.3,12.3,0,0,0-2.94,7.25v21.89l-8,1.53V94.52L234,93v4.22a19,19,0,0,1,4.77-4.78A15.09,15.09,0,0,1,244.76,90C253.81,88.22,258.37,92.27,258.37,102.27Z"/><path class="cls-1" d="M77.48,177v7l-16.41,3.14v43.21L52.87,232V188.75l-16.41,3.14v-7Z"/><path class="cls-1" d="M90.31,173.56v19.71a16.65,16.65,0,0,1,5-5.46,15.17,15.17,0,0,1,6.1-2.5c4.41-.85,7.71-.21,9.88,2s3.09,5.53,3.09,10.38v22.52l-8,1.53V200.61c0-3.09-.63-5.37-1.82-6.76-1.4-1.49-3.44-1.94-6.17-1.42a8.6,8.6,0,0,0-5.89,4.08,14.07,14.07,0,0,0-2.17,8v20.33l-8,1.53V175.09Z"/><path class="cls-1" d="M131.67,167.13a4.24,4.24,0,0,1,1.55,3.5,6.2,6.2,0,0,1-1.62,4.18,6.67,6.67,0,0,1-3.85,2.22,4.71,4.71,0,0,1-3.86-.74,4.32,4.32,0,0,1-1.54-3.58,5.93,5.93,0,0,1,1.54-4.09,6.7,6.7,0,0,1,3.86-2.22A4.81,4.81,0,0,1,131.67,167.13Zm.07,13.35v36.39l-8,1.53V182Z"/><path class="cls-1" d="M173.53,186.42v22.45l-8,1.53V188.66c0-6-2.74-8.42-8.2-7.37a9,9,0,0,0-5.19,3.1,12.25,12.25,0,0,0-3,7.25v21.89l-8,1.53V178.67l8-1.53v4.23a19.16,19.16,0,0,1,4.77-4.78,15.13,15.13,0,0,1,6-2.48C169,172.38,173.53,176.43,173.53,186.42Z"/><path class="cls-1" d="M189.52,154.58v29.28l14.86-17.27,10.31-2-16.06,18.13,17.46,18-10.24,2-12.69-13.76-3.64,4.15v12.74l-8,1.52V156.11Z"/><path class="cls-1" d="M229.2,148.47a4.29,4.29,0,0,1,1.54,3.5,6.22,6.22,0,0,1-1.61,4.18,6.67,6.67,0,0,1-3.85,2.22,4.7,4.7,0,0,1-3.86-.74,4.32,4.32,0,0,1-1.54-3.58,6,6,0,0,1,1.54-4.09,6.67,6.67,0,0,1,3.86-2.22A4.84,4.84,0,0,1,229.2,148.47Zm.07,13.36v36.38l-8,1.53V163.36Z"/><path class="cls-1" d="M271.06,167.77v22.45l-8,1.53V170c0-6-2.73-8.41-8.2-7.37a9.15,9.15,0,0,0-5.19,3.11,12.3,12.3,0,0,0-2.94,7.24v21.89l-8,1.53V160l8-1.53v4.22a19,19,0,0,1,4.77-4.78,15.22,15.22,0,0,1,6-2.48C266.5,153.72,271.06,157.77,271.06,167.77Z"/><path class="cls-1" d="M304.85,151.8v-4.43l8-1.53V179.9c0,11.47-5.67,18.33-17,20.5-5.12,1-9,.73-11.64-.59s-4.35-4.09-5.05-8l8-1.53c.43,2,1.27,3.21,2.6,3.8s3.29.56,6.1,0q9-1.74,9-11.44v-5.35A15.93,15.93,0,0,1,294.13,185c-4.91.94-8.91,0-11.92-2.65s-4.56-6.87-4.56-12.36a22.32,22.32,0,0,1,4.56-14.17,19,19,0,0,1,11.92-7.34C298.61,147.58,302.19,148.65,304.85,151.8Zm-16.47,7.38a15.39,15.39,0,0,0-2.53,9.2c0,3.45.63,6,2,7.72,1.54,2,4,2.76,7.5,2.09a11.17,11.17,0,0,0,7.15-4.4,15.9,15.9,0,0,0,2.45-9c0-3.73-.84-6.46-2.45-8.26s-4.07-2.39-7.08-1.81A10.51,10.51,0,0,0,288.38,159.18Z"/></svg>