<svg viewBox="0 0 340.16 340.16"><path class="cls-1" d="M76.5,124.93h71.05a0,0,0,0,1,0,0V196a19.24,19.24,0,0,1-19.24,19.24H57.26a0,0,0,0,1,0,0V144.17A19.24,19.24,0,0,1,76.5,124.93Z" transform="translate(150.26 -22.6) rotate(45)"/><path class="cls-1" d="M211.66,125.11h71.05a0,0,0,0,1,0,0v71.05a19.24,19.24,0,0,1-19.24,19.24H192.42a0,0,0,0,1,0,0V144.35a19.24,19.24,0,0,1,19.24-19.24Z" transform="translate(189.97 -118.12) rotate(45)"/><path d="M77.24,111a2.37,2.37,0,0,1,.32,1.45c0,1.26,0,2.51,0,3.77a1.44,1.44,0,1,1-2.88,0c0-.2,0-.4,0-.6l-.09,0-.23.23c-13.86,13.87-17.87,17.87-31.74,31.74a1.4,1.4,0,0,1-1.53.4,1.44,1.44,0,0,1-.59-2.36l.21-.21,31.72-31.72.23-.23v-.1c-.35,0-.7,0-1,0a1.45,1.45,0,0,1-1.43-1.64,1.43,1.43,0,0,1,1.33-1.24c.67,0,1.34,0,2,0s1.33,0,2,0a2.53,2.53,0,0,1,1.5.3Z"/><path class="cls-2" d="M77.12,229.4a2.37,2.37,0,0,1-1.45.32H71.9a1.44,1.44,0,1,1,0-2.88l.6,0,0-.09-.23-.23L40.54,194.8a1.41,1.41,0,0,1-.4-1.53,1.45,1.45,0,0,1,2.37-.59l.2.21,31.73,31.72.23.23h.1c0-.35,0-.7,0-1.05a1.44,1.44,0,0,1,2.88-.1c0,.67,0,1.34,0,2s0,1.33,0,2a2.54,2.54,0,0,1-.31,1.5Z"/><path class="cls-3" d="M212.51,229.4a2.37,2.37,0,0,1-1.45.32h-3.77a1.44,1.44,0,1,1,0-2.88l.6,0,0-.09-.23-.23c-13.87-13.86-17.87-17.87-31.74-31.74a1.38,1.38,0,0,1-.4-1.53,1.44,1.44,0,0,1,2.36-.59l.21.21,31.72,31.72.23.23h.1c0-.35,0-.7,0-1.05a1.44,1.44,0,0,1,1.64-1.43,1.43,1.43,0,0,1,1.24,1.33c0,.67,0,1.34,0,2s0,1.33,0,2a2.46,2.46,0,0,1-.31,1.5Z"/><path class="cls-4" d="M212.63,111a2.31,2.31,0,0,1,.32,1.45c0,1.26,0,2.51,0,3.77a1.45,1.45,0,1,1-2.89,0c0-.2,0-.4,0-.6l-.1,0-.22.23L178,147.52a1.41,1.41,0,0,1-1.54.4,1.44,1.44,0,0,1-.58-2.36l.2-.21,31.73-31.72.23-.23,0-.1c-.35,0-.7,0-1.05,0a1.45,1.45,0,0,1-1.43-1.64,1.43,1.43,0,0,1,1.34-1.24c.66,0,1.33,0,2,0s1.33,0,2,0a2.51,2.51,0,0,1,1.5.3Z"/><path class="cls-5" d="M165,147.55a2.37,2.37,0,0,1-1.45.32h-3.77a1.44,1.44,0,1,1,0-2.88l.6,0,0-.09-.23-.23L128.39,113a1.41,1.41,0,0,1-.4-1.53,1.45,1.45,0,0,1,2.37-.59l.2.21,31.73,31.72.23.23h.1c0-.35-.05-.7,0-1a1.44,1.44,0,0,1,2.88-.1c0,.67,0,1.34,0,2s0,1.33,0,2a2.54,2.54,0,0,1-.31,1.5Z"/><path class="cls-6" d="M165.09,192.66a2.37,2.37,0,0,1,.32,1.45c0,1.26,0,2.51,0,3.77a1.44,1.44,0,0,1-1.45,1.5,1.42,1.42,0,0,1-1.43-1.49c0-.2,0-.4,0-.6l-.09,0-.23.23-31.74,31.74a1.39,1.39,0,0,1-1.54.4,1.44,1.44,0,0,1-.58-2.36l.21-.2,31.72-31.73.23-.23V195c-.35,0-.7.05-1.05,0a1.44,1.44,0,0,1-.1-2.88c.67,0,1.34,0,2,0h2a2.46,2.46,0,0,1,1.5.31Z"/><path class="cls-7" d="M299.77,147.55a2.37,2.37,0,0,1-1.45.32h-3.77a1.44,1.44,0,1,1,0-2.88l.6,0,0-.09-.23-.23L263.19,113a1.41,1.41,0,0,1-.4-1.53,1.45,1.45,0,0,1,2.37-.59l.2.21,31.73,31.72.23.23h.1c0-.35-.05-.7,0-1a1.44,1.44,0,0,1,2.88-.1c0,.67,0,1.34,0,2s0,1.33,0,2a2.46,2.46,0,0,1-.31,1.5Z"/><path class="cls-8" d="M299.89,192.66a2.37,2.37,0,0,1,.32,1.45c0,1.26,0,2.51,0,3.77a1.44,1.44,0,0,1-1.45,1.5,1.42,1.42,0,0,1-1.43-1.49c0-.2,0-.4,0-.6l-.09,0-.22.23-31.75,31.74a1.38,1.38,0,0,1-1.53.4,1.44,1.44,0,0,1-.59-2.36l.21-.2,31.72-31.73.24-.23,0-.1c-.35,0-.7.05-1.05,0a1.44,1.44,0,0,1-.1-2.88c.67,0,1.34,0,2,0h2a2.46,2.46,0,0,1,1.5.31Z"/><circle class="cls-9" cx="300.03" cy="170.25" r="13.54"/><circle class="cls-10" cx="169.51" cy="170.25" r="13.54"/><circle class="cls-9" cx="40.13" cy="170.25" r="13.54"/></svg>