<svg viewBox="0 0 340.16 340.16"><path class="cls-1" d="M84,89H202.39a22.5,22.5,0,0,1,22.49,22.5v25H106.5v-25A22.5,22.5,0,0,0,84,89"/><path class="cls-1" d="M106.41,240.26l.25-26.1H225l-.25,26.1H151.4a22.5,22.5,0,1,1-45,0Z"/><path class="cls-2" d="M61.42,111.5a22.5,22.5,0,1,1,45,0"/><path class="cls-2" d="M202.3,89a22.5,22.5,0,0,1,22.49,22.5"/><line class="cls-2" x1="224.79" y1="111.66" x2="224.79" y2="231.69"/><line class="cls-2" x1="106.41" y1="240.26" x2="106.41" y2="111.66"/><line class="cls-2" x1="61.42" y1="111.5" x2="97.84" y2="111.5"/><path class="cls-2" d="M247.29,262.76a22.49,22.49,0,0,0,22.49-22.5H151.4a22.49,22.49,0,0,1-22.49,22.5"/><path class="cls-2" d="M128.91,262.76a22.5,22.5,0,0,1-22.5-22.5"/><line class="cls-2" x1="83.92" y1="89" x2="202.3" y2="89"/><line class="cls-2" x1="128.91" y1="262.76" x2="247.29" y2="262.76"/><path class="cls-3" d="M183.07,112.48a5.91,5.91,0,0,1-.76-1,6.41,6.41,0,0,1-.53-2,4.74,4.74,0,0,0-2-2.9,10.83,10.83,0,0,0-1.89-.88h0a5.54,5.54,0,0,1-1.33-1.52,4.81,4.81,0,0,0-3.27-2.15c-.88-.16-1.76,0-2.63-.06h0a5.55,5.55,0,0,1-1.51-.68,4.69,4.69,0,0,0-4.86-.1,4.51,4.51,0,0,1-3.35.77,1.52,1.52,0,0,0-.84.08,1.72,1.72,0,0,0-.74.15l-.22.08a4.41,4.41,0,0,0-2.6,2.11,3.62,3.62,0,0,1-2,1.63,2.89,2.89,0,0,0-.91.46,4.52,4.52,0,0,0-2.33,3.48,4.26,4.26,0,0,1-1.24,2.5,5.1,5.1,0,0,0-1.19,1.9,5.42,5.42,0,0,0,5.12,7.27c2.51,0,5,0,7.53,0a1.38,1.38,0,0,1,1.37.75,1.53,1.53,0,0,1-1.09,2.28c-2,.37-4,.7-6,1-.6.11-.74.32-.68.92s.47.35.74.35h21.51l.48,0a.25.25,0,0,0,.26-.22c.15-.59-.05-.93-.65-1-2-.35-4-.68-6-1-1-.18-1.37-.74-1.27-1.83.07-.78.61-1.2,1.55-1.2,2.49,0,5,0,7.47,0a5.15,5.15,0,0,0,5-3.28A5.22,5.22,0,0,0,183.07,112.48Z"/><rect class="cls-4" x="121.01" y="148.63" width="44.07" height="54.31"/><circle class="cls-3" cx="143.05" cy="164.25" r="8.5"/><path class="cls-3" d="M142.08,174.79H144a11.9,11.9,0,0,1,11.9,11.9v10.17a0,0,0,0,1,0,0H130.19a0,0,0,0,1,0,0V186.68A11.9,11.9,0,0,1,142.08,174.79Z"/><line class="cls-5" x1="175.46" y1="152.05" x2="210.69" y2="152.05"/><line class="cls-5" x1="175.46" y1="161.05" x2="210.69" y2="161.05"/><line class="cls-5" x1="175.46" y1="170.05" x2="210.69" y2="170.05"/><line class="cls-5" x1="175.46" y1="179.05" x2="210.69" y2="179.05"/><line class="cls-5" x1="175.46" y1="188.05" x2="210.69" y2="188.05"/><line class="cls-5" x1="175.46" y1="197.05" x2="210.69" y2="197.05"/><line class="cls-6" x1="136.21" y1="222.23" x2="195.49" y2="222.23"/><line class="cls-6" x1="136.21" y1="229.86" x2="195.49" y2="229.86"/><line class="cls-5" x1="303.66" y1="91.65" x2="303.66" y2="99.35"/><line class="cls-5" x1="303.66" y1="117.71" x2="303.66" y2="110.01"/><line class="cls-5" x1="290.62" y1="104.68" x2="298.33" y2="104.68"/><line class="cls-5" x1="316.69" y1="104.68" x2="308.98" y2="104.68"/><line class="cls-5" x1="233.97" y1="54.69" x2="233.97" y2="62.4"/><line class="cls-5" x1="233.97" y1="80.76" x2="233.97" y2="73.05"/><line class="cls-5" x1="220.94" y1="67.73" x2="228.65" y2="67.73"/><line class="cls-5" x1="247.01" y1="67.73" x2="239.3" y2="67.73"/><line class="cls-5" x1="274.53" y1="160.37" x2="274.53" y2="168.08"/><line class="cls-5" x1="274.53" y1="186.44" x2="274.53" y2="178.73"/><line class="cls-5" x1="261.49" y1="173.41" x2="269.2" y2="173.41"/><line class="cls-5" x1="287.56" y1="173.41" x2="279.85" y2="173.41"/></svg>