<svg id="圖層_1" data-name="圖層 1" xmlns="http://www.w3.org/2000/svg" viewBox="0 0 340.16 340.16"><defs><style>.cls-1{fill:#f4f4f4;stroke-width:7.91px;}.cls-1,.cls-2,.cls-4{stroke:#4591c7;stroke-linecap:round;stroke-linejoin:round;}.cls-2,.cls-4{fill:none;}.cls-2{stroke-width:3.95px;}.cls-3{fill:#4591c7;}.cls-4{stroke-width:10.54px;}</style></defs><title>working-animal</title><path class="cls-1" d="M226.23,78.84a19,19,0,0,0-37.61-.14s-13.19,59.86-14.46,59.59a58,58,0,0,0-11.78-1.2h0a57.93,57.93,0,0,0-12.69,1.4c-.95.22-10.33-41.62-10.33-41.62l-21.22,34.5,8,18.5a57.68,57.68,0,0,0-20.92,36.42l-2.07,13.8c-2.86,19,5.06,38.33,21,49.1a50,50,0,0,0,28.06,8.57h20.3a50,50,0,0,0,28.06-8.57c15.94-10.77,23.86-30.08,21-49.1l-2.08-13.8a57.63,57.63,0,0,0-20.91-36.42l26.14-60.3A19.15,19.15,0,0,0,226.23,78.84Z"/><path class="cls-1" d="M117.67,79.11h0a10.76,10.76,0,0,1,10.76,10.76v29.89a26.2,26.2,0,0,1-26.2,26.2h0a6.54,6.54,0,0,1-6.54-6.54V101.09A22,22,0,0,1,117.67,79.11Z" transform="translate(74.76 -41.83) rotate(31.29)"/><path class="cls-2" d="M160.94,218.74a9.16,9.16,0,0,1-18.32,0"/><path class="cls-2" d="M179.51,218.74a9.16,9.16,0,0,1-18.32,0"/><path class="cls-3" d="M154.23,199.94h14.34a4,4,0,0,1,4,4v3.72a11.2,11.2,0,0,1-11.2,11.2h0a11.2,11.2,0,0,1-11.2-11.2V204a4,4,0,0,1,4-4Z"/><line class="cls-4" x1="188.41" y1="182.4" x2="188.41" y2="187.68"/><line class="cls-4" x1="134.38" y1="182.4" x2="134.38" y2="187.68"/><path class="cls-2" d="M171,227.87v6.43a3.17,3.17,0,0,1-3.17,3.17H155a3.17,3.17,0,0,1-3.17-3.17v-6.43"/><line class="cls-2" x1="161.06" y1="226.55" x2="161.06" y2="235.77"/><path class="cls-2" d="M142.38,164.61a9.25,9.25,0,0,0-11.36,0"/><path class="cls-2" d="M182.42,162.66a9.23,9.23,0,0,0,11.35,0"/></svg>